<svg xmlns="http://www.w3.org/2000/svg" viewBox="0 0 200 200" width="200" height="200" role="img" aria-label="이지수 — 대표">
  <defs>
    <linearGradient id="bg-jl" x1="0" y1="0" x2="1" y2="1">
      <stop offset="0" stop-color="#fb7185"/>
      <stop offset="1" stop-color="#f59e0b"/>
    </linearGradient>
  </defs>
  <circle cx="100" cy="100" r="100" fill="url(#bg-jl)"/>

  <!-- 몸 -->
  <path d="M 30 200 Q 30 140 100 130 Q 170 140 170 200 Z" fill="#1c1917"/>
  <!-- 셔츠 카라 -->
  <path d="M 85 135 L 100 150 L 115 135 L 110 145 L 100 155 L 90 145 Z" fill="#fafafa"/>

  <!-- 얼굴 -->
  <ellipse cx="100" cy="98" rx="34" ry="38" fill="#fde2d3"/>

  <!-- 머리 -->
  <path d="M 64 90 Q 64 60 100 56 Q 136 60 136 90 Q 136 100 130 102 L 130 80 Q 100 70 70 80 L 70 102 Q 64 100 64 90 Z" fill="#1c1917"/>
  <!-- 앞머리 사이드 -->
  <path d="M 70 95 Q 70 75 100 72 L 100 95 Z" fill="#1c1917"/>

  <!-- 눈 -->
  <path d="M 84 96 q 6 -4 12 0" stroke="#1c1917" stroke-width="2.5" fill="none" stroke-linecap="round"/>
  <path d="M 104 96 q 6 -4 12 0" stroke="#1c1917" stroke-width="2.5" fill="none" stroke-linecap="round"/>

  <!-- 입 -->
  <path d="M 92 116 q 8 6 16 0" stroke="#9f1239" stroke-width="2" fill="none" stroke-linecap="round"/>

  <!-- 볼터치 -->
  <circle cx="78" cy="110" r="5" fill="#fca5a5" opacity="0.6"/>
  <circle cx="122" cy="110" r="5" fill="#fca5a5" opacity="0.6"/>
</svg>
