<svg xmlns="http://www.w3.org/2000/svg" viewBox="0 0 200 200" width="200" height="200" role="img" aria-label="한유진 — 엔지니어링 리드">
  <defs>
    <linearGradient id="bg-yh" x1="0" y1="0" x2="1" y2="1">
      <stop offset="0" stop-color="#06b6d4"/>
      <stop offset="1" stop-color="#10b981"/>
    </linearGradient>
  </defs>
  <circle cx="100" cy="100" r="100" fill="url(#bg-yh)"/>

  <!-- 몸 (티셔츠) -->
  <path d="M 30 200 Q 30 140 100 130 Q 170 140 170 200 Z" fill="#0f766e"/>
  <!-- 티셔츠 라인 -->
  <path d="M 80 135 Q 100 142 120 135" stroke="#0d5751" stroke-width="2" fill="none"/>

  <!-- 얼굴 -->
  <ellipse cx="100" cy="98" rx="34" ry="38" fill="#fde2c8"/>

  <!-- 머리 (긴 단발) -->
  <path d="M 60 100 Q 60 56 100 52 Q 140 56 140 100 Q 140 130 134 138 L 134 90 Q 100 80 66 90 L 66 138 Q 60 130 60 100 Z" fill="#3a1810"/>

  <!-- 앞머리 -->
  <path d="M 70 78 Q 100 70 130 78 Q 120 90 100 88 Q 80 90 70 78 Z" fill="#3a1810"/>

  <!-- 눈 -->
  <ellipse cx="88" cy="98" rx="2.5" ry="3" fill="#1c1917"/>
  <ellipse cx="112" cy="98" rx="2.5" ry="3" fill="#1c1917"/>
  <ellipse cx="88" cy="96" rx="1" ry="1" fill="#fff"/>
  <ellipse cx="112" cy="96" rx="1" ry="1" fill="#fff"/>

  <!-- 입 -->
  <path d="M 90 116 q 10 4 20 0" stroke="#9f1239" stroke-width="2" fill="none" stroke-linecap="round"/>

  <!-- 귀걸이 -->
  <circle cx="66" cy="108" r="2" fill="#fbbf24"/>
  <circle cx="134" cy="108" r="2" fill="#fbbf24"/>
</svg>
