<svg xmlns="http://www.w3.org/2000/svg" viewBox="0 0 200 200" width="200" height="200" role="img" aria-label="박서연 — 그로스 매니저">
  <defs>
    <linearGradient id="bg-sp" x1="0" y1="0" x2="1" y2="1">
      <stop offset="0" stop-color="#f43f5e"/>
      <stop offset="1" stop-color="#fb7185"/>
    </linearGradient>
  </defs>
  <circle cx="100" cy="100" r="100" fill="url(#bg-sp)"/>

  <!-- 몸 (블레이저) -->
  <path d="M 30 200 Q 30 140 100 130 Q 170 140 170 200 Z" fill="#9f1239"/>
  <!-- 셔츠 -->
  <path d="M 90 135 L 100 150 L 110 135 L 110 200 L 90 200 Z" fill="#fef3c7"/>

  <!-- 얼굴 -->
  <ellipse cx="100" cy="98" rx="34" ry="38" fill="#fde2d3"/>

  <!-- 머리 (포니테일) -->
  <path d="M 60 92 Q 60 56 100 52 Q 140 56 140 92 L 140 102 Q 100 80 60 102 Z" fill="#451a03"/>
  <!-- 포니테일 -->
  <ellipse cx="142" cy="115" rx="14" ry="22" fill="#451a03"/>
  <!-- 앞머리 (한쪽으로) -->
  <path d="M 68 88 Q 74 70 100 70 L 100 88 Z" fill="#451a03"/>

  <!-- 눈 -->
  <path d="M 84 96 q 6 -3 12 0" stroke="#1c1917" stroke-width="2.5" fill="none" stroke-linecap="round"/>
  <path d="M 104 96 q 6 -3 12 0" stroke="#1c1917" stroke-width="2.5" fill="none" stroke-linecap="round"/>

  <!-- 입 (활짝) -->
  <path d="M 88 116 q 12 8 24 0" stroke="#9f1239" stroke-width="2.5" fill="none" stroke-linecap="round"/>
  <path d="M 90 117 q 10 5 20 0" fill="#9f1239"/>

  <!-- 볼터치 -->
  <circle cx="78" cy="112" r="5" fill="#fca5a5" opacity="0.5"/>
  <circle cx="122" cy="112" r="5" fill="#fca5a5" opacity="0.5"/>
</svg>
