<svg xmlns="http://www.w3.org/2000/svg" viewBox="0 0 600 360" width="600" height="360" role="img" aria-label="마케팅 사이트 — 100점 라이트하우스">
  <defs>
    <linearGradient id="d3-bg" x1="0" y1="0" x2="1" y2="1">
      <stop offset="0" stop-color="#7c2d12"/>
      <stop offset="1" stop-color="#9f1239"/>
    </linearGradient>
  </defs>
  <rect width="600" height="360" fill="url(#d3-bg)"/>

  <!-- 브라우저 프레임 -->
  <g transform="translate(60 40)">
    <rect width="480" height="280" rx="10" fill="#fff"/>
    <!-- 주소창 -->
    <rect x="0" y="0" width="480" height="32" rx="10" fill="#f1f5f9"/>
    <circle cx="14" cy="16" r="4" fill="#ef4444"/>
    <circle cx="28" cy="16" r="4" fill="#fbbf24"/>
    <circle cx="42" cy="16" r="4" fill="#10b981"/>
    <rect x="60" y="8" width="240" height="16" rx="8" fill="#e2e8f0"/>
    <text x="70" y="20" font-family="ui-monospace,monospace" font-size="9" fill="#64748b">https://product.io</text>

    <!-- 페이지 콘텐츠 -->
    <g transform="translate(0 40)">
      <!-- Hero -->
      <rect width="480" height="120" fill="#fef3c7"/>
      <text x="240" y="56" text-anchor="middle" font-family="-apple-system,sans-serif" font-size="22" font-weight="800" fill="#7c2d12">제품을 가장 빠르게.</text>
      <text x="240" y="80" text-anchor="middle" font-family="-apple-system,sans-serif" font-size="11" fill="#92400e">LCP 1.2초 · 100점 라이트하우스</text>
      <rect x="180" y="92" width="120" height="22" rx="11" fill="#c2410c"/>
      <text x="240" y="107" text-anchor="middle" font-family="-apple-system,sans-serif" font-size="10" font-weight="700" fill="#fff">무료로 시작하기 →</text>

      <!-- 기능 3개 -->
      <g transform="translate(20 140)">
        <rect width="135" height="84" rx="6" fill="#fff" stroke="#e5e7eb"/>
        <circle cx="20" cy="20" r="10" fill="#fb923c"/>
        <rect x="38" y="14" width="60" height="6" rx="2" fill="#0f172a"/>
        <rect x="10" y="38" width="115" height="4" rx="2" fill="#cbd5e1"/>
        <rect x="10" y="48" width="100" height="4" rx="2" fill="#cbd5e1"/>
        <rect x="10" y="58" width="90" height="4" rx="2" fill="#cbd5e1"/>

        <rect x="155" width="135" height="84" rx="6" fill="#fff" stroke="#e5e7eb"/>
        <circle cx="175" cy="20" r="10" fill="#10b981"/>
        <rect x="193" y="14" width="60" height="6" rx="2" fill="#0f172a"/>
        <rect x="165" y="38" width="115" height="4" rx="2" fill="#cbd5e1"/>
        <rect x="165" y="48" width="100" height="4" rx="2" fill="#cbd5e1"/>
        <rect x="165" y="58" width="90" height="4" rx="2" fill="#cbd5e1"/>

        <rect x="310" width="130" height="84" rx="6" fill="#fff" stroke="#e5e7eb"/>
        <circle cx="330" cy="20" r="10" fill="#3b82f6"/>
        <rect x="348" y="14" width="60" height="6" rx="2" fill="#0f172a"/>
        <rect x="320" y="38" width="110" height="4" rx="2" fill="#cbd5e1"/>
        <rect x="320" y="48" width="95" height="4" rx="2" fill="#cbd5e1"/>
        <rect x="320" y="58" width="85" height="4" rx="2" fill="#cbd5e1"/>
      </g>
    </g>
  </g>

  <!-- 라이트하우스 100점 원 (우상단) -->
  <g transform="translate(490 70)">
    <circle r="36" fill="#fff"/>
    <circle r="36" fill="none" stroke="#10b981" stroke-width="4"/>
    <text y="2" text-anchor="middle" font-family="-apple-system,sans-serif" font-size="22" font-weight="800" fill="#10b981">100</text>
    <text y="18" text-anchor="middle" font-family="-apple-system,sans-serif" font-size="7" fill="#065f46">Lighthouse</text>
  </g>

  <text x="60" y="346" font-family="-apple-system,sans-serif" font-size="12" font-weight="700" fill="#fed7aa">마케팅 사이트 · Next.js · Vercel · SEO</text>
</svg>
